<svg width="142" height="170" viewBox="0 0 142 170" fill="none" xmlns="http://www.w3.org/2000/svg">
<path d="M8.97469 65.0363L97.3031 21.1336C100.266 19.6608 103.862 20.8649 105.341 23.825L139.319 91.8372C140.8 94.8016 139.597 98.4052 136.633 99.8861L48.3099 144.01L8.97469 65.0363Z" fill="url(#paint0_linear_7_77)"/>
<path d="M109.15 27.2158C109.55 12.8158 98.9834 7.54915 93.6501 6.71582C90.8168 23.3825 86.0501 56.2158 89.6501 54.2158C94.1501 51.7158 108.65 45.2158 109.15 27.2158Z" fill="url(#paint1_linear_7_77)"/>
<path d="M103.65 11.7158C97.6495 0.515785 84.1495 -0.617548 78.1495 0.215785C58.1495 4.21575 49.6495 20.2158 56.1495 36.2158C62.6495 52.2158 75.1495 50.7158 78.1495 50.7158C81.1495 50.7158 101.15 41.2158 102.65 39.7158C104.15 38.2158 111.15 25.7158 103.65 11.7158Z" fill="url(#paint2_linear_7_77)"/>
<path d="M104.15 23.2159C102.55 5.21594 86.1499 2.3826 78.1499 3.21594C72.8497 3.21594 54.1499 11.7158 57.1499 29.7158C59.5499 44.1158 71.4833 47.7158 77.1499 47.7158C86.8166 47.0492 105.75 41.2159 104.15 23.2159Z" fill="#F5B973"/>
<mask id="mask0_7_77" style="mask-type:alpha" maskUnits="userSpaceOnUse" x="56" y="3" width="49" height="45">
<path d="M104.15 23.2159C102.55 5.21594 86.1499 2.3826 78.1499 3.21594C72.8497 3.21594 54.1499 11.7158 57.1499 29.7158C59.5499 44.1158 71.4833 47.7158 77.1499 47.7158C86.8166 47.0492 105.75 41.2159 104.15 23.2159Z" fill="#F5B973"/>
</mask>
<g mask="url(#mask0_7_77)">
<path d="M113.15 27.7158C113.15 40.9707 100.838 51.7158 85.6504 51.7158C70.4626 51.7158 58.1504 40.9707 58.1504 27.7158C58.1504 14.461 70.3122 3 85.5 3C100.688 3 113.15 14.461 113.15 27.7158Z" fill="url(#paint3_linear_7_77)"/>
<path d="M68.235 19.3358L68.5109 16.4941L80.7474 17.6822L80.4715 20.5239L76.0816 20.0977L74.9519 31.7333L71.5022 31.3984L72.632 19.7628L68.235 19.3358ZM96.4181 24.4983L92.8836 24.1552C92.8717 23.7877 92.8069 23.4508 92.6892 23.1444C92.5714 22.838 92.4025 22.5695 92.1823 22.3388C91.962 22.1081 91.6923 21.9226 91.3729 21.7821C91.0587 21.6375 90.7037 21.5459 90.3078 21.5075C89.6056 21.4393 88.9833 21.5525 88.441 21.8471C87.9033 22.1422 87.4662 22.6016 87.1298 23.2254C86.798 23.8497 86.5873 24.6237 86.4976 25.5474C86.4042 26.5088 86.4627 27.3279 86.6728 28.0048C86.8882 28.6774 87.2297 29.2029 87.6972 29.5813C88.1699 29.9555 88.7502 30.1759 89.4383 30.2427C89.8247 30.2803 90.1806 30.2649 90.506 30.1966C90.836 30.1287 91.1304 30.0122 91.3891 29.847C91.6529 29.6776 91.8758 29.4638 92.0579 29.2055C92.2451 28.943 92.3863 28.6404 92.4814 28.2976L96.0139 28.662C95.8904 29.297 95.6429 29.9104 95.2715 30.5023C94.9047 31.0946 94.4278 31.6215 93.8407 32.083C93.254 32.5399 92.5596 32.8815 91.7575 33.1081C90.96 33.3351 90.0641 33.4004 89.0697 33.3038C87.7596 33.1766 86.614 32.7752 85.6331 32.0996C84.6573 31.4197 83.9239 30.497 83.4329 29.3314C82.9419 28.1658 82.7735 26.7889 82.9277 25.2008C83.0824 23.6079 83.5174 22.2872 84.2329 21.2388C84.9484 20.1903 85.8524 19.4289 86.945 18.9546C88.0376 18.4804 89.2272 18.3057 90.5138 18.4306C91.3903 18.5157 92.189 18.7169 92.9098 19.0343C93.6311 19.3469 94.2519 19.764 94.7721 20.2854C95.2928 20.8022 95.6971 21.4147 95.9851 22.1229C96.2731 22.8312 96.4175 23.623 96.4181 24.4983Z" fill="#E7A550"/>
</g>
<g filter="url(#filter0_d_7_77)">
<path d="M8.97402 65.0363L103.801 37.5066C106.985 36.5824 110.314 38.4148 111.237 41.5986L132.394 114.607C133.317 117.79 131.484 121.117 128.301 122.04L33.4718 149.521L8.97402 65.0363Z" fill="url(#paint4_linear_7_77)"/>
</g>
<ellipse cx="36.5261" cy="135.527" rx="22.1049" ry="27.1444" transform="rotate(-29.145 36.5261 135.527)" fill="url(#paint5_linear_7_77)"/>
<ellipse cx="39.0219" cy="133.473" rx="22.1049" ry="27.1444" transform="rotate(-29.145 39.0219 133.473)" fill="url(#paint6_linear_7_77)"/>
<ellipse cx="39.0203" cy="133.473" rx="19.6524" ry="23.9743" transform="rotate(-29.145 39.0203 133.473)" fill="url(#paint7_linear_7_77)"/>
<mask id="mask1_7_77" style="mask-type:alpha" maskUnits="userSpaceOnUse" x="18" y="110" width="42" height="47">
<ellipse cx="39.0203" cy="133.473" rx="19.6524" ry="23.9743" transform="rotate(-29.145 39.0203 133.473)" fill="#F9DB6C"/>
</mask>
<g mask="url(#mask1_7_77)">
<ellipse cx="37.5198" cy="134.625" rx="19.2418" ry="24.6904" transform="rotate(-29.145 37.5198 134.625)" fill="url(#paint8_linear_7_77)"/>
<path d="M25.3851 127.312L25.8588 124.496L37.9825 126.536L37.5088 129.352L33.1594 128.62L31.22 140.148L27.8022 139.573L29.7415 128.045L25.3851 127.312ZM53.139 134.43L49.6371 133.841C49.6509 133.473 49.6097 133.133 49.5137 132.819C49.4176 132.505 49.2678 132.225 49.0643 131.98C48.8607 131.734 48.6045 131.53 48.2957 131.368C47.9924 131.202 47.6446 131.086 47.2524 131.02C46.5567 130.902 45.928 130.972 45.3664 131.228C44.8095 131.485 44.3414 131.913 43.9622 132.511C43.5876 133.111 43.3234 133.868 43.1694 134.784C43.0092 135.736 43.0103 136.557 43.1727 137.247C43.3406 137.933 43.6445 138.481 44.0844 138.891C44.5298 139.298 45.0934 139.558 45.7751 139.673C46.158 139.737 46.5141 139.747 46.8434 139.701C47.1774 139.657 47.4792 139.561 47.7488 139.414C48.0238 139.264 48.2611 139.066 48.4607 138.821C48.6658 138.572 48.8278 138.28 48.9466 137.945L52.445 138.555C52.2775 139.18 51.9878 139.774 51.5759 140.339C51.1688 140.904 50.6562 141.397 50.0383 141.816C49.4212 142.231 48.7046 142.523 47.8886 142.693C47.0772 142.864 46.1789 142.866 45.1937 142.701C43.8957 142.482 42.7809 142.002 41.8495 141.259C40.9236 140.513 40.2564 139.541 39.848 138.344C39.4396 137.147 39.3678 135.762 39.6325 134.189C39.898 132.61 40.4242 131.323 41.2111 130.327C41.998 129.331 42.953 128.635 44.0761 128.238C45.1991 127.841 46.398 127.75 47.6727 127.965C48.5412 128.111 49.3239 128.367 50.0208 128.734C50.7185 129.096 51.3086 129.556 51.7911 130.112C52.2745 130.664 52.6351 131.303 52.8729 132.03C53.1108 132.756 53.1995 133.556 53.139 134.43Z" fill="#E7A550"/>
</g>
<path d="M46.5083 92.5743L46.2527 91.47L52.833 89.9471L53.0886 91.0514L50.4357 91.6654L52.1478 99.0636L50.8691 99.3595L49.157 91.9613L46.5083 92.5743ZM58.0086 97.8429C57.3803 97.9883 56.8082 97.9792 56.2921 97.8158C55.7782 97.649 55.3414 97.3491 54.9817 96.9162C54.6241 96.4799 54.3688 95.9311 54.2157 95.2696C54.0645 94.6164 54.0531 94.0125 54.1813 93.4579C54.3124 92.9027 54.5656 92.4344 54.941 92.053C55.3191 91.671 55.8043 91.4115 56.3966 91.2744C56.7565 91.1911 57.119 91.1699 57.4842 91.2108C57.8494 91.2517 58.1957 91.3683 58.5231 91.5608C58.8505 91.7533 59.1388 92.0351 59.3879 92.4061C59.6364 92.7743 59.8276 93.2477 59.9615 93.8261L60.0633 94.2662L54.9942 95.4393L54.779 94.5093L58.6317 93.6177C58.5561 93.2911 58.4227 93.0173 58.2316 92.7962C58.0398 92.5723 57.8066 92.4148 57.5318 92.3239C57.2598 92.2323 56.9633 92.2236 56.6423 92.2979C56.2935 92.3786 56.0089 92.5349 55.7885 92.7667C55.5701 92.9951 55.4221 93.2626 55.3444 93.5693C55.2687 93.8726 55.2678 94.1834 55.3414 94.5017L55.5096 95.2282C55.6082 95.6544 55.7669 95.9997 55.9855 96.264C56.2069 96.5277 56.4715 96.7071 56.7792 96.8021C57.0863 96.8943 57.4212 96.8984 57.7837 96.8145C58.019 96.7601 58.2258 96.6772 58.4042 96.566C58.5819 96.4519 58.7257 96.3108 58.8354 96.1425C58.9452 95.9742 59.0144 95.7818 59.043 95.5652L60.2669 95.505C60.2529 95.8728 60.1542 96.2149 59.9708 96.5314C59.7896 96.8446 59.533 97.1154 59.2009 97.3438C58.871 97.5689 58.4736 97.7353 58.0086 97.8429ZM65.7551 90.8363L64.6761 91.296C64.5958 91.1629 64.4893 91.0432 64.3568 90.9369C64.2271 90.8298 64.0668 90.7547 63.876 90.7113C63.6852 90.668 63.4611 90.6761 63.2037 90.7357C62.8522 90.8171 62.577 90.9638 62.3783 91.176C62.1789 91.3855 62.1077 91.6134 62.1647 91.8597C62.214 92.0728 62.3326 92.2262 62.5205 92.3197C62.7084 92.4133 62.9876 92.4609 63.3584 92.4626L64.4252 92.4607C65.0433 92.4605 65.529 92.5683 65.8822 92.784C66.2354 92.9997 66.4641 93.3331 66.5686 93.7842C66.6569 94.1662 66.625 94.5322 66.4728 94.8824C66.3227 95.2291 66.0706 95.5324 65.7167 95.7922C65.3655 96.0514 64.9325 96.2405 64.4177 96.3596C63.7036 96.5249 63.0858 96.5075 62.5642 96.3074C62.0419 96.1046 61.6643 95.7328 61.4312 95.1918L62.5887 94.7315C62.7359 95.027 62.9442 95.2281 63.2139 95.3348C63.4829 95.4387 63.8042 95.4475 64.1778 95.361C64.5847 95.2669 64.8904 95.1072 65.0949 94.882C65.2987 94.654 65.3721 94.4169 65.3151 94.1705C65.269 93.9712 65.1555 93.8211 64.9747 93.7201C64.7966 93.6184 64.5473 93.5682 64.2269 93.5695L63.0927 93.5826C62.4662 93.5847 61.9762 93.4707 61.6226 93.2405C61.2717 93.0097 61.0438 92.6673 60.9387 92.2134C60.8516 91.837 60.8806 91.4833 61.0256 91.1523C61.1706 90.8213 61.4103 90.534 61.7447 90.2904C62.0784 90.044 62.4847 89.8655 62.9635 89.7547C63.6527 89.5952 64.2297 89.6191 64.6947 89.8264C65.159 90.031 65.5125 90.3676 65.7551 90.8363ZM69.8609 88.2459L70.0915 89.2423L66.6083 90.0484L66.3777 89.052L69.8609 88.2459ZM66.9583 87.308L68.1996 87.0207L69.5956 93.0531C69.6514 93.2939 69.7293 93.4668 69.8294 93.5719C69.9289 93.6743 70.0406 93.7345 70.1643 93.7525C70.2901 93.7671 70.4209 93.7588 70.5565 93.7274C70.6561 93.7043 70.7417 93.6772 70.8132 93.6461C70.8848 93.6149 70.9403 93.5904 70.9799 93.5725L71.4414 94.5461C71.3759 94.5904 71.2799 94.6418 71.1534 94.7002C71.0276 94.7614 70.8654 94.8164 70.6668 94.8653C70.3414 94.9464 70.0235 94.9588 69.713 94.9023C69.4026 94.8459 69.1307 94.7105 68.8974 94.4962C68.6641 94.282 68.5029 93.9825 68.4139 93.5977L66.9583 87.308ZM81.6376 86.1941L80.3423 86.4938C80.2285 86.2286 80.0794 86.0065 79.8951 85.8275C79.7108 85.6485 79.5034 85.5085 79.2729 85.4072C79.0425 85.306 78.7968 85.2462 78.536 85.2279C78.2779 85.2089 78.0132 85.2308 77.742 85.2935C77.2521 85.4069 76.8419 85.6316 76.5114 85.9676C76.1837 86.303 75.9628 86.7346 75.8488 87.2625C75.7376 87.7898 75.7614 88.3967 75.9202 89.0831C76.0803 89.775 76.3262 90.3334 76.6578 90.7582C76.9922 91.1824 77.3813 91.4714 77.8251 91.6253C78.269 91.7792 78.7331 91.8001 79.2174 91.688C79.4859 91.6259 79.7322 91.531 79.9564 91.4033C80.1826 91.2722 80.3774 91.1119 80.5406 90.9225C80.7038 90.7331 80.8292 90.519 80.9167 90.28C81.0064 90.0376 81.0462 89.7747 81.036 89.4913L82.3323 89.1957C82.3598 89.6296 82.3146 90.0454 82.1967 90.443C82.0809 90.8373 81.8974 91.1976 81.6464 91.5239C81.3975 91.8469 81.0911 92.1234 80.7273 92.3533C80.3636 92.5833 79.9478 92.7524 79.4801 92.8607C78.7438 93.0311 78.0475 93.0085 77.3911 92.793C76.7341 92.5747 76.1639 92.1774 75.6806 91.6011C75.2001 91.0241 74.8551 90.2831 74.6457 89.3781C74.4356 88.4702 74.4213 87.6527 74.6029 86.9254C74.7839 86.1953 75.1219 85.5893 75.6169 85.1074C76.1112 84.6226 76.7251 84.2954 77.4586 84.1257C77.9097 84.0212 78.3455 83.9889 78.7658 84.0287C79.1883 84.0651 79.5847 84.1716 79.9551 84.3483C80.3249 84.5223 80.6535 84.7641 80.941 85.0737C81.2278 85.3806 81.46 85.754 81.6376 86.1941ZM87.1168 91.1065C86.5189 91.2448 85.9655 91.2286 85.4565 91.0577C84.9475 90.8868 84.5128 90.5835 84.1524 90.1479C83.7921 89.7122 83.5357 89.165 83.3833 88.5063C83.2302 87.8448 83.2195 87.2379 83.3511 86.6854C83.4828 86.133 83.7398 85.6682 84.1219 85.2911C84.5041 84.9139 84.9942 84.6562 85.592 84.5178C86.1898 84.3795 86.7433 84.3958 87.2523 84.5666C87.7613 84.7375 88.1963 85.0422 88.5573 85.4806C88.9183 85.919 89.1753 86.469 89.3284 87.1305C89.4808 87.7892 89.4909 88.3934 89.3586 88.9431C89.2263 89.4927 88.969 89.9561 88.5868 90.3333C88.2046 90.7104 87.7146 90.9681 87.1168 91.1065ZM86.8798 90.0635C87.2673 89.9738 87.5646 89.7971 87.7718 89.5333C87.9791 89.2696 88.1042 88.9534 88.1472 88.5848C88.193 88.2155 88.1684 87.8261 88.0736 87.4165C87.9795 87.0096 87.8307 86.6504 87.6274 86.3388C87.4262 86.0237 87.1743 85.7919 86.8716 85.6433C86.5689 85.4946 86.2238 85.4651 85.8363 85.5548C85.4461 85.6451 85.1463 85.8238 84.9369 86.091C84.7303 86.3575 84.6045 86.6768 84.5593 87.0488C84.5164 87.4174 84.5419 87.8051 84.6361 88.212C84.7309 88.6216 84.8786 88.9826 85.0791 89.2948C85.2825 89.6064 85.5352 89.8352 85.8372 89.9811C86.142 90.1263 86.4895 90.1538 86.8798 90.0635ZM91.4452 89.9692L89.9694 83.5923L91.2107 83.305L92.6865 89.6819L91.4452 89.9692ZM90.3686 82.4633C90.1527 82.5132 89.9506 82.4842 89.7623 82.3761C89.5761 82.2647 89.4597 82.1079 89.4129 81.9059C89.3655 81.701 89.4013 81.5091 89.5202 81.3299C89.6412 81.1473 89.8097 81.0311 90.0256 80.9811C90.2415 80.9312 90.4425 80.9619 90.6287 81.0734C90.817 81.1814 90.9348 81.3379 90.9822 81.5427C91.029 81.7447 90.9918 81.937 90.8708 82.1196C90.7519 82.2987 90.5845 82.4133 90.3686 82.4633ZM94.7216 85.2219L95.5978 89.0082L94.3565 89.2954L92.8807 82.9185L94.0722 82.6428L94.3124 83.6807L94.3913 83.6624C94.4599 83.2908 94.6268 82.9664 94.8922 82.6892C95.1603 82.4114 95.5338 82.2171 96.0126 82.1062C96.4471 82.0057 96.8488 82.0089 97.2177 82.116C97.5859 82.2204 97.9013 82.4302 98.1639 82.7456C98.4264 83.061 98.6185 83.4817 98.7402 84.0075L99.6789 88.0637L98.4376 88.351L97.5335 84.4443C97.4265 83.9821 97.2225 83.6487 96.9215 83.4443C96.6199 83.2371 96.2587 83.1822 95.838 83.2795C95.5501 83.3461 95.3085 83.4677 95.1132 83.6441C94.9206 83.8199 94.7871 84.0432 94.7127 84.3141C94.6405 84.5816 94.6435 84.8842 94.7216 85.2219Z" fill="#666666"/>
<defs>
<filter id="filter0_d_7_77" x="0.973999" y="29.2671" width="139.659" height="128.253" filterUnits="userSpaceOnUse" color-interpolation-filters="sRGB">
<feFlood flood-opacity="0" result="BackgroundImageFix"/>
<feColorMatrix in="SourceAlpha" type="matrix" values="0 0 0 0 0 0 0 0 0 0 0 0 0 0 0 0 0 0 127 0" result="hardAlpha"/>
<feOffset/>
<feGaussianBlur stdDeviation="4"/>
<feComposite in2="hardAlpha" operator="out"/>
<feColorMatrix type="matrix" values="0 0 0 0 0.195833 0 0 0 0 0.195833 0 0 0 0 0.195833 0 0 0 0.22 0"/>
<feBlend mode="normal" in2="BackgroundImageFix" result="effect1_dropShadow_7_77"/>
<feBlend mode="normal" in="SourceGraphic" in2="effect1_dropShadow_7_77" result="shape"/>
</filter>
<linearGradient id="paint0_linear_7_77" x1="11.191" y1="66.2727" x2="142" y2="99.2102" gradientUnits="userSpaceOnUse">
<stop stop-color="#868686"/>
<stop offset="1" stop-color="#1B1B1B"/>
</linearGradient>
<linearGradient id="paint1_linear_7_77" x1="104" y1="12" x2="101" y2="42.5" gradientUnits="userSpaceOnUse">
<stop stop-color="#EE9C43"/>
<stop offset="1" stop-color="#EBA840"/>
</linearGradient>
<linearGradient id="paint2_linear_7_77" x1="67.5" y1="48" x2="96" y2="4.5" gradientUnits="userSpaceOnUse">
<stop stop-color="#FEF6BC"/>
<stop offset="1" stop-color="#FCEEA7"/>
</linearGradient>
<linearGradient id="paint3_linear_7_77" x1="60.5" y1="23" x2="92.5" y2="31.5" gradientUnits="userSpaceOnUse">
<stop stop-color="#FFF2C2"/>
<stop offset="1" stop-color="#F8D860"/>
</linearGradient>
<linearGradient id="paint4_linear_7_77" x1="10.7203" y1="66.2728" x2="132.589" y2="115.679" gradientUnits="userSpaceOnUse">
<stop stop-color="#C5C5C5"/>
<stop offset="1" stop-color="#1A1A1A"/>
</linearGradient>
<linearGradient id="paint5_linear_7_77" x1="35.4389" y1="109.206" x2="36.5261" y2="162.671" gradientUnits="userSpaceOnUse">
<stop stop-color="#EE993A"/>
<stop offset="0.479167" stop-color="#EAC451"/>
<stop offset="0.973958" stop-color="#E3B365"/>
</linearGradient>
<linearGradient id="paint6_linear_7_77" x1="45.7421" y1="108.488" x2="27.1075" y2="155.146" gradientUnits="userSpaceOnUse">
<stop stop-color="#FDF2B0"/>
<stop offset="1" stop-color="#FCEFA9"/>
</linearGradient>
<linearGradient id="paint7_linear_7_77" x1="39.0203" y1="109.499" x2="39.0203" y2="157.447" gradientUnits="userSpaceOnUse">
<stop stop-color="#EAAD5F"/>
<stop offset="0.453125" stop-color="#FFC783"/>
<stop offset="0.984375" stop-color="#EDAD5C"/>
</linearGradient>
<linearGradient id="paint8_linear_7_77" x1="20.5751" y1="128.684" x2="54.5422" y2="143.598" gradientUnits="userSpaceOnUse">
<stop stop-color="#F7D862"/>
<stop offset="1" stop-color="#FCECAA"/>
</linearGradient>
</defs>
</svg>
